<?xml version="1.0" encoding="UTF-8" ?>
<!DOCTYPE svg PUBLIC "-//W3C//DTD SVG 1.1//EN" "http://www.w3.org/Graphics/SVG/1.1/DTD/svg11.dtd">
<svg width="375pt" height="375pt" viewBox="0 0 375 375" version="1.1" xmlns="http://www.w3.org/2000/svg">
<g id="#2fa1d5ff">
<path fill="#2fa1d5" opacity="1.00" d=" M 169.66 0.00 L 193.34 0.00 C 232.57 4.31 268.43 28.35 287.40 62.87 C 340.09 67.23 377.85 125.72 361.69 175.80 C 348.73 226.49 286.64 255.21 239.57 232.38 C 235.66 230.56 231.45 227.06 227.14 230.04 C 192.42 244.88 151.00 241.09 118.80 221.71 C 96.04 238.87 62.80 241.33 38.82 225.16 C 11.72 208.27 0.36 171.24 12.98 141.97 C 21.01 122.15 38.95 106.66 59.81 101.83 C 65.16 101.08 63.91 94.26 65.45 90.39 C 76.63 42.08 120.67 5.08 169.66 0.00 M 172.41 20.45 C 121.07 23.83 79.00 72.30 81.90 123.52 C 46.60 116.26 15.48 157.59 32.52 189.41 C 46.17 222.34 97.43 224.79 114.36 193.50 C 144.00 219.78 189.30 227.01 225.01 209.00 C 229.19 207.66 233.79 201.72 237.90 206.10 C 263.56 225.61 302.91 222.43 325.23 199.23 C 347.90 177.38 351.48 139.34 333.38 113.60 C 320.60 94.13 297.39 83.41 274.42 83.61 C 259.21 43.07 215.60 15.67 172.41 20.45 Z" />
<path fill="#2fa1d5" opacity="1.00" d=" M 103.16 251.84 C 112.20 272.88 130.70 292.72 127.08 317.05 C 122.35 339.23 87.55 340.89 80.67 319.32 C 73.73 294.11 95.51 274.12 103.16 251.84 Z" />
<path fill="#2fa1d5" opacity="1.00" d=" M 275.15 253.85 C 283.35 271.64 295.97 287.88 299.50 307.53 C 302.44 320.58 293.01 334.73 279.68 336.60 C 265.51 339.53 250.78 327.51 251.08 313.00 C 251.22 290.76 268.02 273.94 275.15 253.85 Z" />
<path fill="#2fa1d5" opacity="1.00" d=" M 189.15 268.85 C 198.21 289.88 216.69 309.73 213.08 334.05 C 208.34 356.23 173.54 357.89 166.67 336.31 C 159.74 311.11 181.50 291.12 189.15 268.85 Z" />
</g>
</svg>
